<svg width="171" height="24" viewBox="0 0 171 24" fill="none" xmlns="http://www.w3.org/2000/svg">
<g clip-path="url(#clip0_213_193)">
<path d="M20.6667 5.33337H15.3333V6.66671H20.6667V20.6667H15.3333V22H22V6.66671C22 6.31309 21.8595 5.97395 21.6095 5.7239C21.3594 5.47385 21.0203 5.33337 20.6667 5.33337Z" fill="white"/>
<path d="M13.2533 2H4.08001C3.70517 2 3.34568 2.1489 3.08063 2.41396C2.81558 2.67901 2.66667 3.03849 2.66667 3.41333V22H14.6667V3.41333C14.6667 3.03849 14.5178 2.67901 14.2527 2.41396C13.9877 2.1489 13.6282 2 13.2533 2ZM13.3333 20.6667H11.3333V18.6667H6.00001V20.6667H4.00001V3.41333C4.00001 3.40283 4.00207 3.39242 4.00609 3.38272C4.01012 3.37301 4.01601 3.36419 4.02344 3.35676C4.03087 3.34934 4.03968 3.34344 4.04939 3.33942C4.0591 3.3354 4.0695 3.33333 4.08001 3.33333H13.2533C13.2638 3.33333 13.2742 3.3354 13.284 3.33942C13.2937 3.34344 13.3025 3.34934 13.3099 3.35676C13.3173 3.36419 13.3232 3.37301 13.3272 3.38272C13.3313 3.39242 13.3333 3.40283 13.3333 3.41333V20.6667Z" fill="white"/>
<path d="M6.66666 5.33337H5.33333V6.66671H6.66666V5.33337Z" fill="white"/>
<path d="M9.33333 5.33337H8V6.66671H9.33333V5.33337Z" fill="white"/>
<path d="M12 5.33337H10.6667V6.66671H12V5.33337Z" fill="white"/>
<path d="M6.66666 8.66663H5.33333V9.99996H6.66666V8.66663Z" fill="white"/>
<path d="M9.33333 8.66663H8V9.99996H9.33333V8.66663Z" fill="white"/>
<path d="M12 8.66663H10.6667V9.99996H12V8.66663Z" fill="white"/>
<path d="M6.66666 12H5.33333V13.3333H6.66666V12Z" fill="white"/>
<path d="M9.33333 12H8V13.3333H9.33333V12Z" fill="white"/>
<path d="M12 12H10.6667V13.3333H12V12Z" fill="white"/>
<path d="M6.66666 15.3334H5.33333V16.6667H6.66666V15.3334Z" fill="white"/>
<path d="M9.33333 15.3334H8V16.6667H9.33333V15.3334Z" fill="white"/>
<path d="M12 15.3334H10.6667V16.6667H12V15.3334Z" fill="white"/>
<path d="M16.6667 8.66663H15.3333V9.99996H16.6667V8.66663Z" fill="white"/>
<path d="M19.3333 8.66663H18V9.99996H19.3333V8.66663Z" fill="white"/>
<path d="M16.6667 12H15.3333V13.3333H16.6667V12Z" fill="white"/>
<path d="M19.3333 12H18V13.3333H19.3333V12Z" fill="white"/>
<path d="M16.6667 15.3334H15.3333V16.6667H16.6667V15.3334Z" fill="white"/>
<path d="M19.3333 15.3334H18V16.6667H19.3333V15.3334Z" fill="white"/>
</g>
<path d="M37.4347 19V4.45455H46.7528V6.66335H40.0696V10.6122H46.1136V12.821H40.0696V19H37.4347ZM51.6813 19.2202C50.99 19.2202 50.3674 19.0971 49.8134 18.8509C49.2642 18.5999 48.8286 18.2306 48.5066 17.7429C48.1894 17.2552 48.0308 16.6539 48.0308 15.9389C48.0308 15.3234 48.1444 14.8144 48.3717 14.4119C48.5989 14.0095 48.9091 13.6875 49.3021 13.446C49.6951 13.2045 50.1378 13.0223 50.6302 12.8991C51.1273 12.7713 51.6411 12.679 52.1714 12.6222C52.8106 12.5559 53.329 12.4967 53.7268 12.4446C54.1245 12.3878 54.4133 12.3026 54.5933 12.1889C54.7779 12.0705 54.8702 11.8883 54.8702 11.642V11.5994C54.8702 11.0644 54.7116 10.6501 54.3944 10.3565C54.0772 10.063 53.6202 9.91619 53.0237 9.91619C52.3939 9.91619 51.8944 10.0535 51.5251 10.3281C51.1605 10.6027 50.9143 10.9271 50.7864 11.3011L48.3859 10.9602C48.5753 10.2973 48.8878 9.74337 49.3234 9.2983C49.759 8.84848 50.2916 8.51231 50.9214 8.28977C51.5511 8.0625 52.2471 7.94886 53.0094 7.94886C53.535 7.94886 54.0582 8.01042 54.579 8.13352C55.0999 8.25663 55.5757 8.46023 56.0066 8.74432C56.4375 9.02367 56.7831 9.40483 57.0435 9.88778C57.3087 10.3707 57.4413 10.9744 57.4413 11.6989V19H54.9697V17.5014H54.8844C54.7282 17.8045 54.508 18.0885 54.2239 18.3537C53.9446 18.6141 53.5918 18.8248 53.1657 18.9858C52.7443 19.142 52.2495 19.2202 51.6813 19.2202ZM52.3489 17.331C52.865 17.331 53.3125 17.2292 53.6913 17.0256C54.0701 16.8172 54.3612 16.5426 54.5648 16.2017C54.7732 15.8608 54.8773 15.4891 54.8773 15.0866V13.8011C54.7969 13.8674 54.6595 13.929 54.4654 13.9858C54.276 14.0426 54.063 14.0923 53.8262 14.1349C53.5895 14.1776 53.3551 14.2154 53.1231 14.2486C52.8911 14.2817 52.6898 14.3101 52.5194 14.3338C52.1359 14.3859 51.7926 14.4711 51.4896 14.5895C51.1865 14.7079 50.9474 14.8736 50.7722 15.0866C50.597 15.295 50.5094 15.5649 50.5094 15.8963C50.5094 16.3698 50.6823 16.7273 51.0279 16.9688C51.3736 17.2102 51.8139 17.331 52.3489 17.331ZM65.0739 8.09091V10.0795H58.8026V8.09091H65.0739ZM60.3509 5.47727H62.9219V15.7188C62.9219 16.0644 62.974 16.3295 63.0782 16.5142C63.1871 16.6941 63.3291 16.8172 63.5043 16.8835C63.6795 16.9498 63.8737 16.983 64.0867 16.983C64.2477 16.983 64.3945 16.9711 64.5271 16.9474C64.6644 16.9238 64.7685 16.9025 64.8396 16.8835L65.2728 18.8935C65.1355 18.9408 64.939 18.9929 64.6833 19.0497C64.4324 19.1065 64.1246 19.1397 63.76 19.1491C63.1161 19.1681 62.5361 19.071 62.02 18.858C61.5039 18.6402 61.0943 18.304 60.7913 17.8494C60.493 17.3949 60.3462 16.8267 60.3509 16.1449V5.47727ZM71.5365 19.2131C70.4428 19.2131 69.4982 18.9858 68.7027 18.5312C67.912 18.072 67.3036 17.4233 66.8774 16.5852C66.4513 15.7424 66.2382 14.7505 66.2382 13.6094C66.2382 12.4872 66.4513 11.5024 66.8774 10.6548C67.3083 9.80256 67.9096 9.13968 68.6814 8.66619C69.4532 8.18797 70.3599 7.94886 71.4016 7.94886C72.0739 7.94886 72.7084 8.05777 73.305 8.27557C73.9063 8.48864 74.4366 8.82008 74.8959 9.26989C75.3599 9.7197 75.7245 10.2926 75.9896 10.9886C76.2548 11.6799 76.3874 12.5038 76.3874 13.4602V14.2486H67.4456V12.5156H73.9229C73.9181 12.0232 73.8116 11.5852 73.6033 11.2017C73.3949 10.8134 73.1037 10.508 72.7297 10.2855C72.3604 10.063 71.9295 9.9517 71.4371 9.9517C70.9115 9.9517 70.4499 10.0795 70.0521 10.3352C69.6544 10.5862 69.3443 10.9176 69.1217 11.3295C68.9039 11.7367 68.7927 12.1842 68.7879 12.6719V14.1847C68.7879 14.8191 68.9039 15.3636 69.1359 15.8182C69.3679 16.268 69.6923 16.6136 70.1089 16.8551C70.5256 17.0919 71.0133 17.2102 71.572 17.2102C71.9461 17.2102 72.2846 17.1581 72.5876 17.054C72.8907 16.9451 73.1535 16.7865 73.376 16.5781C73.5985 16.3698 73.7666 16.1117 73.8803 15.804L76.2808 16.0739C76.1293 16.7083 75.8405 17.2623 75.4143 17.7358C74.9929 18.2045 74.4532 18.5691 73.795 18.8295C73.1369 19.0852 72.384 19.2131 71.5365 19.2131ZM82.921 19.2131C81.8319 19.2131 80.8968 18.974 80.1156 18.4957C79.339 18.0175 78.7401 17.357 78.3187 16.5142C77.902 15.6667 77.6937 14.6913 77.6937 13.5881C77.6937 12.4801 77.9067 11.5024 78.3329 10.6548C78.759 9.80256 79.3603 9.13968 80.1369 8.66619C80.9181 8.18797 81.8414 7.94886 82.9067 7.94886C83.7922 7.94886 84.5758 8.11222 85.2576 8.43892C85.9442 8.76089 86.491 9.2178 86.8982 9.80966C87.3054 10.3968 87.5374 11.0833 87.5942 11.8693H85.1369C85.0374 11.3437 84.8007 10.9058 84.4266 10.5554C84.0573 10.2003 83.5625 10.0227 82.9423 10.0227C82.4167 10.0227 81.955 10.1648 81.5573 10.4489C81.1596 10.7282 80.8495 11.1307 80.6269 11.6562C80.4091 12.1818 80.3002 12.8116 80.3002 13.5455C80.3002 14.2888 80.4091 14.928 80.6269 15.4631C80.8447 15.9934 81.1501 16.4029 81.5431 16.6918C81.9408 16.9759 82.4072 17.1179 82.9423 17.1179C83.321 17.1179 83.6596 17.0469 83.9579 16.9048C84.2609 16.758 84.5142 16.5473 84.7178 16.2727C84.9214 15.9981 85.0611 15.6643 85.1369 15.2713H87.5942C87.5327 16.0431 87.3054 16.7273 86.9124 17.3239C86.5194 17.9157 85.9844 18.3797 85.3073 18.7159C84.6302 19.0473 83.8348 19.2131 82.921 19.2131ZM96.6149 4.45455V19H93.98V4.45455H96.6149ZM104.402 8.09091V10.0795H98.1308V8.09091H104.402ZM99.679 5.47727H102.25V15.7188C102.25 16.0644 102.302 16.3295 102.406 16.5142C102.515 16.6941 102.657 16.8172 102.832 16.8835C103.008 16.9498 103.202 16.983 103.415 16.983C103.576 16.983 103.723 16.9711 103.855 16.9474C103.992 16.9238 104.097 16.9025 104.168 16.8835L104.601 18.8935C104.464 18.9408 104.267 18.9929 104.011 19.0497C103.76 19.1065 103.453 19.1397 103.088 19.1491C102.444 19.1681 101.864 19.071 101.348 18.858C100.832 18.6402 100.422 18.304 100.119 17.8494C99.8211 17.3949 99.6743 16.8267 99.679 16.1449V5.47727ZM109.291 19.2202C108.6 19.2202 107.978 19.0971 107.424 18.8509C106.874 18.5999 106.439 18.2306 106.117 17.7429C105.8 17.2552 105.641 16.6539 105.641 15.9389C105.641 15.3234 105.755 14.8144 105.982 14.4119C106.209 14.0095 106.519 13.6875 106.912 13.446C107.305 13.2045 107.748 13.0223 108.24 12.8991C108.738 12.7713 109.251 12.679 109.782 12.6222C110.421 12.5559 110.939 12.4967 111.337 12.4446C111.735 12.3878 112.023 12.3026 112.203 12.1889C112.388 12.0705 112.48 11.8883 112.48 11.642V11.5994C112.48 11.0644 112.322 10.6501 112.005 10.3565C111.687 10.063 111.23 9.91619 110.634 9.91619C110.004 9.91619 109.505 10.0535 109.135 10.3281C108.771 10.6027 108.524 10.9271 108.397 11.3011L105.996 10.9602C106.185 10.2973 106.498 9.74337 106.934 9.2983C107.369 8.84848 107.902 8.51231 108.532 8.28977C109.161 8.0625 109.857 7.94886 110.62 7.94886C111.145 7.94886 111.668 8.01042 112.189 8.13352C112.71 8.25663 113.186 8.46023 113.617 8.74432C114.048 9.02367 114.393 9.40483 114.654 9.88778C114.919 10.3707 115.051 10.9744 115.051 11.6989V19H112.58V17.5014H112.495C112.338 17.8045 112.118 18.0885 111.834 18.3537C111.555 18.6141 111.202 18.8248 110.776 18.9858C110.354 19.142 109.86 19.2202 109.291 19.2202ZM109.959 17.331C110.475 17.331 110.923 17.2292 111.301 17.0256C111.68 16.8172 111.971 16.5426 112.175 16.2017C112.383 15.8608 112.488 15.4891 112.488 15.0866V13.8011C112.407 13.8674 112.27 13.929 112.076 13.9858C111.886 14.0426 111.673 14.0923 111.436 14.1349C111.2 14.1776 110.965 14.2154 110.733 14.2486C110.501 14.2817 110.3 14.3101 110.13 14.3338C109.746 14.3859 109.403 14.4711 109.1 14.5895C108.797 14.7079 108.558 14.8736 108.382 15.0866C108.207 15.295 108.12 15.5649 108.12 15.8963C108.12 16.3698 108.292 16.7273 108.638 16.9688C108.984 17.2102 109.424 17.331 109.959 17.331ZM124.516 23.0909V17.2812H124.41C124.277 17.5464 124.086 17.8281 123.835 18.1264C123.584 18.42 123.252 18.6709 122.84 18.8793C122.428 19.0876 121.91 19.1918 121.285 19.1918C120.428 19.1918 119.661 18.9716 118.984 18.5312C118.307 18.0909 117.772 17.4517 117.379 16.6136C116.986 15.7756 116.789 14.7576 116.789 13.5597C116.789 12.3475 116.988 11.3248 117.386 10.4915C117.788 9.65341 118.33 9.02131 119.012 8.59517C119.694 8.1643 120.454 7.94886 121.292 7.94886C121.931 7.94886 122.457 8.05777 122.869 8.27557C123.281 8.48864 123.607 8.74669 123.849 9.04972C124.09 9.34801 124.277 9.62973 124.41 9.89489H124.566V8.09091H127.095V23.0909H124.516ZM122.002 17.0824C122.547 17.0824 123.011 16.9356 123.394 16.642C123.778 16.3437 124.069 15.9295 124.268 15.3991C124.467 14.8688 124.566 14.2509 124.566 13.5455C124.566 12.84 124.467 12.2268 124.268 11.706C124.074 11.1851 123.785 10.7803 123.401 10.4915C123.023 10.2027 122.556 10.0582 122.002 10.0582C121.429 10.0582 120.951 10.2074 120.568 10.5057C120.184 10.804 119.895 11.2159 119.701 11.7415C119.507 12.267 119.41 12.8684 119.41 13.5455C119.41 14.2273 119.507 14.8357 119.701 15.3707C119.9 15.901 120.191 16.3201 120.575 16.6278C120.963 16.9309 121.439 17.0824 122.002 17.0824ZM136.29 14.4119V8.09091H138.861V19H136.368V17.0611H136.254C136.008 17.6719 135.603 18.1714 135.04 18.5597C134.481 18.9479 133.792 19.142 132.973 19.142C132.258 19.142 131.626 18.9834 131.077 18.6662C130.532 18.3442 130.106 17.8778 129.798 17.267C129.491 16.6515 129.337 15.9081 129.337 15.0369V8.09091H131.908V14.6392C131.908 15.3305 132.097 15.8797 132.476 16.2869C132.855 16.6941 133.352 16.8977 133.967 16.8977C134.346 16.8977 134.713 16.8054 135.068 16.6207C135.423 16.4361 135.714 16.1615 135.942 15.7969C136.174 15.4276 136.29 14.9659 136.29 14.4119ZM145.934 19.2131C144.84 19.2131 143.896 18.9858 143.1 18.5312C142.31 18.072 141.701 17.4233 141.275 16.5852C140.849 15.7424 140.636 14.7505 140.636 13.6094C140.636 12.4872 140.849 11.5024 141.275 10.6548C141.706 9.80256 142.307 9.13968 143.079 8.66619C143.851 8.18797 144.758 7.94886 145.799 7.94886C146.472 7.94886 147.106 8.05777 147.703 8.27557C148.304 8.48864 148.834 8.82008 149.294 9.26989C149.758 9.7197 150.122 10.2926 150.387 10.9886C150.652 11.6799 150.785 12.5038 150.785 13.4602V14.2486H141.843V12.5156H148.321C148.316 12.0232 148.209 11.5852 148.001 11.2017C147.793 10.8134 147.501 10.508 147.127 10.2855C146.758 10.063 146.327 9.9517 145.835 9.9517C145.309 9.9517 144.848 10.0795 144.45 10.3352C144.052 10.5862 143.742 10.9176 143.519 11.3295C143.302 11.7367 143.19 12.1842 143.186 12.6719V14.1847C143.186 14.8191 143.302 15.3636 143.534 15.8182C143.766 16.268 144.09 16.6136 144.507 16.8551C144.923 17.0919 145.411 17.2102 145.97 17.2102C146.344 17.2102 146.682 17.1581 146.985 17.054C147.288 16.9451 147.551 16.7865 147.774 16.5781C147.996 16.3698 148.164 16.1117 148.278 15.804L150.678 16.0739C150.527 16.7083 150.238 17.2623 149.812 17.7358C149.391 18.2045 148.851 18.5691 148.193 18.8295C147.535 19.0852 146.782 19.2131 145.934 19.2131ZM152.56 19V8.09091H155.053V9.90909H155.167C155.365 9.27936 155.706 8.79403 156.189 8.45312C156.677 8.10748 157.233 7.93466 157.858 7.93466C158 7.93466 158.159 7.94176 158.334 7.95597C158.514 7.96544 158.663 7.98201 158.782 8.00568V10.3707C158.673 10.3329 158.5 10.2997 158.263 10.2713C158.031 10.2382 157.806 10.2216 157.588 10.2216C157.12 10.2216 156.698 10.3234 156.324 10.527C155.955 10.7259 155.664 11.0028 155.451 11.358C155.238 11.7131 155.131 12.1226 155.131 12.5866V19H152.56ZM163.034 19.2202C162.342 19.2202 161.72 19.0971 161.166 18.8509C160.617 18.5999 160.181 18.2306 159.859 17.7429C159.542 17.2552 159.383 16.6539 159.383 15.9389C159.383 15.3234 159.497 14.8144 159.724 14.4119C159.951 14.0095 160.261 13.6875 160.654 13.446C161.047 13.2045 161.49 13.0223 161.983 12.8991C162.48 12.7713 162.993 12.679 163.524 12.6222C164.163 12.5559 164.681 12.4967 165.079 12.4446C165.477 12.3878 165.766 12.3026 165.946 12.1889C166.13 12.0705 166.223 11.8883 166.223 11.642V11.5994C166.223 11.0644 166.064 10.6501 165.747 10.3565C165.43 10.063 164.973 9.91619 164.376 9.91619C163.746 9.91619 163.247 10.0535 162.877 10.3281C162.513 10.6027 162.267 10.9271 162.139 11.3011L159.738 10.9602C159.928 10.2973 160.24 9.74337 160.676 9.2983C161.111 8.84848 161.644 8.51231 162.274 8.28977C162.903 8.0625 163.599 7.94886 164.362 7.94886C164.887 7.94886 165.411 8.01042 165.931 8.13352C166.452 8.25663 166.928 8.46023 167.359 8.74432C167.79 9.02367 168.135 9.40483 168.396 9.88778C168.661 10.3707 168.794 10.9744 168.794 11.6989V19H166.322V17.5014H166.237C166.081 17.8045 165.86 18.0885 165.576 18.3537C165.297 18.6141 164.944 18.8248 164.518 18.9858C164.097 19.142 163.602 19.2202 163.034 19.2202ZM163.701 17.331C164.217 17.331 164.665 17.2292 165.044 17.0256C165.422 16.8172 165.714 16.5426 165.917 16.2017C166.126 15.8608 166.23 15.4891 166.23 15.0866V13.8011C166.149 13.8674 166.012 13.929 165.818 13.9858C165.628 14.0426 165.415 14.0923 165.179 14.1349C164.942 14.1776 164.707 14.2154 164.475 14.2486C164.243 14.2817 164.042 14.3101 163.872 14.3338C163.488 14.3859 163.145 14.4711 162.842 14.5895C162.539 14.7079 162.3 14.8736 162.125 15.0866C161.949 15.295 161.862 15.5649 161.862 15.8963C161.862 16.3698 162.035 16.7273 162.38 16.9688C162.726 17.2102 163.166 17.331 163.701 17.331Z" fill="white"/>
<defs>
<clipPath id="clip0_213_193">
<rect width="24" height="24" fill="white"/>
</clipPath>
</defs>
</svg>
