<svg width="22" height="18" viewBox="0 0 22 18" fill="none" xmlns="http://www.w3.org/2000/svg">
<g clip-path="url(#clip0_110_86)">
<path d="M21.1077 0H0.899298C0.42631 0 0.0429688 0.305812 0.0429688 0.68314C0.0429688 2.58552 1.06521 4.40171 2.84761 5.66566L6.5979 8.32483C7.24818 8.78595 7.62115 9.44854 7.62115 10.1428V16.8044C7.62115 17.3488 8.38382 17.6752 8.95231 17.3727L14.0045 14.6859C14.2427 14.5591 14.3858 14.3459 14.3858 14.1175V10.1428C14.3858 9.44854 14.7588 8.78595 15.4091 8.32483L19.1592 5.66566C20.9416 4.40171 21.9638 2.58552 21.9638 0.68314C21.9638 0.305812 21.5805 0 21.1077 0ZM18.0214 4.64442L14.2712 7.30372C13.2557 8.02396 12.6732 9.05867 12.6732 10.1426V13.7519L9.33364 15.528V10.1428C9.33364 9.05867 8.7511 8.02396 7.73555 7.30372L3.98543 4.64455C2.78356 3.79209 2.01637 2.62408 1.81099 1.36615H20.1958C19.9904 2.62408 19.2234 3.79209 18.0214 4.64442Z" fill="#757575"/>
</g>
<defs>
<clipPath id="clip0_110_86">
<rect width="21.922" height="17.4884" fill="white"/>
</clipPath>
</defs>
</svg>
