<svg width="30" height="30" viewBox="0 0 30 30" fill="none" xmlns="http://www.w3.org/2000/svg">
<path d="M20.7804 3.56505C16.027 -1.18836 8.31825 -1.18836 3.56484 3.56505C-1.18857 8.31846 -1.18857 16.0272 3.56484 20.7807C7.77574 24.9916 14.3065 25.4669 19.0444 22.217L24.9707 28.8459C25.9782 29.9775 27.7297 30.024 28.7992 28.9545L28.9542 28.7994C30.0238 27.7299 29.9773 25.9784 28.8457 24.9709L22.2168 19.0446C25.4718 14.3016 24.9913 7.77595 20.7804 3.56505ZM17.8251 17.8253C14.7043 20.946 9.64093 20.946 6.52022 17.8253C3.3995 14.7046 3.3995 9.64114 6.52022 6.52043C9.64093 3.39971 14.7043 3.39971 17.8251 6.52043C20.9509 9.64631 20.9458 14.7046 17.8251 17.8253Z" fill="#757575"/>
</svg>
