<svg width="24" height="24" viewBox="0 0 24 24" fill="none" xmlns="http://www.w3.org/2000/svg">
<g clip-path="url(#clip0_211_1735)">
<path fill-rule="evenodd" clip-rule="evenodd" d="M20.1816 1.70909C20.6156 1.70909 21.0318 1.88916 21.3387 2.20967C21.6456 2.53019 21.818 2.9649 21.818 3.41818V14.5273C21.818 14.9806 21.6456 15.4153 21.3387 15.7358C21.0318 16.0563 20.6156 16.2364 20.1816 16.2364H14.2907L16.7944 18.1044C16.9354 18.2095 17.0409 18.3588 17.0956 18.5306C17.1502 18.7024 17.1512 18.8878 17.0984 19.0602C17.0456 19.2327 16.9418 19.3831 16.8019 19.4899C16.6619 19.5968 16.4931 19.6544 16.3198 19.6545H7.67982C7.5065 19.6544 7.33771 19.5968 7.19778 19.4899C7.05784 19.3831 6.954 19.2327 6.90121 19.0602C6.84843 18.8878 6.84943 18.7024 6.90408 18.5306C6.95873 18.3588 7.0642 18.2095 7.20528 18.1044L9.70728 16.2364H3.818C3.38401 16.2364 2.9678 16.0563 2.66092 15.7358C2.35404 15.4153 2.18164 14.9806 2.18164 14.5273V3.41818C2.18164 2.9649 2.35404 2.53019 2.66092 2.20967C2.9678 1.88916 3.38401 1.70909 3.818 1.70909H20.1816ZM20.1816 3.41818H3.818V14.5273H7.09073V13.6727C7.09073 12.9928 7.34933 12.3407 7.80965 11.86C8.26997 11.3792 8.89429 11.1091 9.54528 11.1091H14.4544C15.1054 11.1091 15.7297 11.3792 16.19 11.86C16.6503 12.3407 16.9089 12.9928 16.9089 13.6727V14.5273H20.1816V3.41818ZM14.4544 12.8182H9.54528C9.34488 12.8182 9.15146 12.8951 9.0017 13.0341C8.85194 13.1732 8.75627 13.3649 8.73282 13.5727L8.7271 13.6727V14.5273H15.2725V13.6727C15.2725 13.4634 15.1989 13.2614 15.0658 13.105C14.9326 12.9486 14.7491 12.8487 14.5501 12.8242L14.4544 12.8182ZM11.9998 4.27273C12.8678 4.27273 13.7002 4.63286 14.314 5.27389C14.9277 5.91492 15.2725 6.78435 15.2725 7.69091C15.2725 8.59747 14.9277 9.4669 14.314 10.1079C13.7002 10.749 12.8678 11.1091 11.9998 11.1091C11.1318 11.1091 10.2994 10.749 9.68565 10.1079C9.0719 9.4669 8.7271 8.59747 8.7271 7.69091C8.7271 6.78435 9.0719 5.91492 9.68565 5.27389C10.2994 4.63286 11.1318 4.27273 11.9998 4.27273ZM11.9998 5.98182C11.5658 5.98182 11.1496 6.16188 10.8427 6.4824C10.5359 6.80292 10.3635 7.23763 10.3635 7.69091C10.3635 8.14419 10.5359 8.5789 10.8427 8.89942C11.1496 9.21993 11.5658 9.4 11.9998 9.4C12.4338 9.4 12.85 9.21993 13.1569 8.89942C13.4638 8.5789 13.6362 8.14419 13.6362 7.69091C13.6362 7.23763 13.4638 6.80292 13.1569 6.4824C12.85 6.16188 12.4338 5.98182 11.9998 5.98182Z" fill="white"/>
</g>
<defs>
<clipPath id="clip0_211_1735">
<rect width="19.6364" height="20.5091" fill="white" transform="translate(2.18164)"/>
</clipPath>
</defs>
</svg>
