<svg width="110" height="110" viewBox="0 0 110 110" fill="none" xmlns="http://www.w3.org/2000/svg">
<path fill-rule="evenodd" clip-rule="evenodd" d="M92.5 7.83325C94.4891 7.83325 96.3968 8.65855 97.8033 10.1276C99.2098 11.5966 100 13.5891 100 15.6666V66.5833C100 68.6608 99.2098 70.6532 97.8033 72.1223C96.3968 73.5913 94.4891 74.4166 92.5 74.4166H65.5L76.975 82.9784C77.6216 83.4604 78.105 84.1443 78.3555 84.9317C78.6059 85.719 78.6105 86.5691 78.3686 87.3594C78.1267 88.1497 77.6507 88.8393 77.0094 89.3288C76.368 89.8184 75.5944 90.0825 74.8 90.0833H35.2C34.4056 90.0825 33.632 89.8184 32.9906 89.3288C32.3493 88.8393 31.8733 88.1497 31.6314 87.3594C31.3895 86.5691 31.3941 85.719 31.6445 84.9317C31.895 84.1443 32.3784 83.4604 33.025 82.9784L44.4925 74.4166H17.5C15.5109 74.4166 13.6032 73.5913 12.1967 72.1223C10.7902 70.6532 10 68.6608 10 66.5833V15.6666C10 13.5891 10.7902 11.5966 12.1967 10.1276C13.6032 8.65855 15.5109 7.83325 17.5 7.83325H92.5ZM92.5 15.6666H17.5V66.5833H32.5V62.6666C32.5 59.5503 33.6853 56.5616 35.795 54.3581C37.9048 52.1545 40.7663 50.9166 43.75 50.9166H66.25C69.2337 50.9166 72.0952 52.1545 74.205 54.3581C76.3147 56.5616 77.5 59.5503 77.5 62.6666V66.5833H92.5V15.6666ZM66.25 58.7499H43.75C42.8315 58.75 41.945 59.1022 41.2586 59.7397C40.5722 60.3772 40.1337 61.2556 40.0262 62.2083L40 62.6666V66.5833H70V62.6666C69.9999 61.7073 69.6627 60.7813 69.0523 60.0645C68.442 59.3476 67.6009 58.8896 66.6887 58.7773L66.25 58.7499ZM55 19.5833C58.9782 19.5833 62.7936 21.2338 65.6066 24.1719C68.4196 27.11 70 31.0949 70 35.2499C70 39.405 68.4196 43.3899 65.6066 46.3279C62.7936 49.266 58.9782 50.9166 55 50.9166C51.0218 50.9166 47.2064 49.266 44.3934 46.3279C41.5804 43.3899 40 39.405 40 35.2499C40 31.0949 41.5804 27.11 44.3934 24.1719C47.2064 21.2338 51.0218 19.5833 55 19.5833ZM55 27.4166C53.0109 27.4166 51.1032 28.2419 49.6967 29.7109C48.2902 31.18 47.5 33.1724 47.5 35.2499C47.5 37.3274 48.2902 39.3199 49.6967 40.7889C51.1032 42.258 53.0109 43.0833 55 43.0833C56.9891 43.0833 58.8968 42.258 60.3033 40.7889C61.7098 39.3199 62.5 37.3274 62.5 35.2499C62.5 33.1724 61.7098 31.18 60.3033 29.7109C58.8968 28.2419 56.9891 27.4166 55 27.4166Z" fill="#005C6D"/>
</svg>
