<svg width="18" height="18" viewBox="0 0 18 18" fill="none" xmlns="http://www.w3.org/2000/svg">
<path fill-rule="evenodd" clip-rule="evenodd" d="M10.296 16.0405C9.7952 16.1467 9.27609 16.2029 8.74419 16.2029C4.62418 16.2029 1.27964 12.843 1.27964 8.70411C1.27964 8.34931 0.992998 8.06136 0.639819 8.06136C0.286639 8.06136 0 8.34931 0 8.70411C0 13.5522 3.91825 17.4884 8.74419 17.4884C9.36694 17.4884 9.97477 17.4228 10.5608 17.2981C10.9063 17.2244 11.1277 16.8833 11.0544 16.5363C10.9814 16.1892 10.6415 15.9668 10.296 16.0405ZM9.79562 1.27905C13.4183 1.79282 16.2087 4.92388 16.2087 8.70411C16.2087 11.378 14.8122 13.727 12.7132 15.0549C12.4142 15.2439 12.3246 15.6411 12.5127 15.9411C12.7008 16.2414 13.0962 16.3314 13.3948 16.1425C15.8538 14.5874 17.4884 11.836 17.4884 8.70411C17.4884 4.27556 14.2185 0.608018 9.97435 0.00640363C9.62458 -0.0433024 9.30083 0.201797 9.25135 0.552739C9.20187 0.90411 9.44585 1.22977 9.79562 1.27905ZM1.81708 5.90685C2.61686 3.91218 4.24584 2.3413 6.27406 1.62614C6.60762 1.50873 6.78293 1.14151 6.66606 0.806848C6.54918 0.472189 6.18363 0.295644 5.8505 0.413053C3.47464 1.25077 1.5667 3.09076 0.63001 5.42652C0.498208 5.7556 0.65688 6.13054 0.984467 6.26295C1.31205 6.39578 1.68485 6.23594 1.81708 5.90685Z" fill="#313A4E"/>
</svg>

