<svg width="521" height="695" viewBox="0 0 521 695" fill="none" xmlns="http://www.w3.org/2000/svg">
<rect x="50.265" y="70.1658" width="434.034" height="559.656" fill="white"/>
<path d="M102.649 2.24939C55.0461 13.645 17.9869 52.7644 4.34167 106.001L0 122.839V347.35V571.861L4.03155 588.189C16.4363 637.004 47.1381 673.061 89.9345 689.049L103.89 694.322L257.244 694.832C406.566 695.172 411.063 695.172 423.157 691.771C468.28 679.525 504.254 640.745 517.434 590.571L521 576.964V347.35V117.737L517.589 104.64C504.409 54.6353 471.226 18.7476 424.708 3.43994C416.335 0.718628 403.31 0.378479 264.376 0.038269C135.832 -0.131775 111.643 0.208374 102.649 2.24939ZM178.784 80.4881C192.429 83.5496 202.043 87.8018 205.454 92.2239C207.935 95.4555 209.64 125.22 207.935 133.044C206.539 139.167 201.887 139.677 186.382 135.595C170.41 131.513 162.192 131.343 158.006 134.575C155.68 136.616 155.37 137.636 156.765 140.188C158.626 143.419 159.866 144.27 177.853 153.454C208.245 168.762 220.495 200.227 207.315 229.482C196.615 253.464 175.682 264.859 142.5 264.859C124.358 264.859 105.596 261.628 87.7637 255.505C69.0015 249.042 68.0711 246.15 69.7768 207.711C70.7071 187.811 71.4824 182.369 73.6533 179.307L76.4443 175.565L99.7033 182.028C124.358 189.002 131.956 189.342 134.747 184.41C137.383 179.647 130.405 174.715 112.108 168.081C94.1211 161.618 83.422 156.176 79.5455 151.413C77.9949 149.712 75.3589 144.61 73.4982 140.018C70.8622 133.384 70.397 129.983 71.3274 122.839C73.6533 101.749 89.6244 86.6111 115.985 80.3181C129.63 77.0864 164.053 77.0864 178.784 80.4881ZM457.271 81.5086C459.441 84.9103 459.751 108.212 459.751 296.665C459.751 542.267 462.077 514.883 440.834 514.883C420.211 514.883 422.537 542.437 422.537 296.665C422.537 101.068 422.692 83.7197 425.173 80.8283C427.189 78.277 430.135 77.7668 441.299 77.7668C453.549 77.7668 455.1 78.1069 457.271 81.5086ZM330.742 83.3795C332.293 85.0804 335.239 92.2239 337.254 99.5375C339.115 106.681 344.387 126.411 349.039 143.249C353.536 160.088 362.219 192.063 368.266 214.344C374.159 236.625 379.431 255.505 379.896 256.355C380.361 257.206 379.586 259.077 378.19 260.437C376.174 262.648 371.368 263.159 348.264 263.159C328.416 263.159 320.043 262.478 318.027 260.947C316.632 259.757 314.461 254.654 313.53 249.552L311.67 240.197L298.179 239.687C283.604 239.177 284.689 238.496 282.208 250.402C281.743 253.124 280.193 257.206 278.952 259.247C276.781 263.159 276.161 263.159 247.63 263.159C226.697 263.159 217.704 262.478 215.843 260.947C213.362 259.077 213.672 257.036 220.185 233.394C230.574 195.635 236.776 173.014 248.095 131.343C259.57 88.6522 261.43 83.3795 266.237 81.1685C268.253 80.3181 282.829 79.8078 298.645 79.9778C323.919 80.3181 327.951 80.6582 330.742 83.3795ZM138.313 308.401C141.724 310.782 141.879 311.292 142.19 357.215L142.655 403.478L170.1 404.328C188.397 404.839 198.166 405.859 199.407 407.22C204.058 412.322 204.368 474.063 199.872 481.887C198.011 485.459 196.305 485.629 164.828 486.819C146.686 487.5 121.101 487.84 108.076 487.5C86.6783 486.819 84.0423 486.479 82.0265 483.588C78.7702 478.655 78.7702 314.694 82.0265 309.762C83.8872 307.21 86.8333 306.36 97.9976 305.51C116.295 304.319 134.126 305.51 138.313 308.401ZM318.802 305.68C325.78 307.891 326.09 308.571 338.03 353.303C345.938 383.238 358.343 429.161 369.352 469.471C372.918 482.227 373.073 484.778 371.212 486.139C369.972 486.989 356.327 487.67 340.821 487.67C308.568 487.67 309.034 487.84 306.243 473.213L304.382 463.688L291.047 464.198L277.557 464.708L275.541 474.063C274.455 479.165 272.285 484.438 270.889 485.459C269.183 486.989 260.345 487.67 240.187 487.67C210.726 487.67 207.004 487.159 207.004 483.247C207.004 480.526 249.181 325.409 252.747 314.864C254.143 310.952 256.779 307.04 258.639 306.02C262.981 303.639 311.359 303.469 318.802 305.68ZM180.644 516.584C180.644 519.646 169.945 536.484 167.464 537.674C162.968 539.545 157.385 538.695 156.455 536.144C155.835 534.783 157.23 529.34 159.556 524.238L163.588 514.883H172.116C176.768 514.883 180.644 515.563 180.644 516.584ZM265.927 543.968C276.471 546.349 278.332 548.9 278.332 559.955C278.332 569.82 276.471 571.521 269.028 569.14C262.516 567.099 249.646 567.439 247.01 569.65C242.513 573.562 242.203 578.835 246.39 584.107C250.111 588.7 250.421 588.87 264.532 588.36C274.765 588.189 279.262 588.53 280.193 590.06C280.813 591.251 281.433 598.224 281.433 605.368C281.433 617.444 281.123 618.805 277.712 621.186C275.696 622.717 268.098 625.098 260.81 626.628C250.266 628.669 246.079 628.84 239.257 627.309C218.944 622.717 208.555 608.259 208.555 585.128C208.555 571.351 210.571 564.548 217.083 556.044C226.542 543.627 245.149 539.035 265.927 543.968ZM127.614 553.832C128.389 569.99 127.924 570.841 115.829 571.351L105.44 571.861L104.975 577.474C104.665 581.386 105.13 583.087 106.526 582.747C107.611 582.577 111.953 582.577 115.985 582.747L123.427 582.917L122.962 593.462L122.497 604.177L113.659 604.688L104.665 605.198V614.042C104.665 618.975 103.89 623.907 102.804 625.098C101.564 626.458 95.8268 627.139 87.2985 627.139C75.514 627.139 73.4982 626.799 72.1027 623.907C70.397 620.335 69.7768 551.111 71.4824 546.519C72.4128 544.138 75.8241 543.797 99.8583 544.138L127.149 544.648L127.614 553.832ZM187.002 554.003C193.514 576.454 205.454 621.866 205.454 624.417C205.454 626.969 203.593 627.139 191.188 626.799C177.388 626.288 176.923 626.118 175.993 622.036C175.217 618.464 174.132 617.784 168.55 617.274C163.123 616.764 162.037 617.274 162.037 619.825C162.037 625.778 158.781 627.139 144.826 627.139C137.383 627.139 130.87 626.458 130.405 625.778C129.63 624.417 149.632 549.58 151.803 545.668C152.579 544.308 157.696 543.797 168.55 544.138L184.211 544.648L187.002 554.003ZM316.787 584.448C317.097 615.233 316.632 624.587 315.236 625.778C314.151 626.458 308.258 627.139 302.056 627.139C285.465 627.139 286.085 628.669 286.085 586.148C286.085 564.208 286.705 549.07 287.79 547.029C289.186 543.968 290.737 543.797 302.831 544.138L316.321 544.648L316.787 584.448ZM354.001 566.249L354.466 588.019H365.32C381.757 588.019 382.222 588.53 382.222 606.729C382.222 627.649 382.997 627.139 352.915 627.139C336.014 627.139 327.951 626.458 326.71 625.098C324.695 622.887 323.919 551.791 325.78 546.349C326.555 544.138 329.036 543.797 340.201 544.138L353.536 544.648L354.001 566.249ZM456.65 550.771C486.422 565.568 487.662 607.579 458.821 623.057C442.54 631.731 421.917 627.479 410.908 613.192C394.782 592.271 402.224 561.146 425.948 549.75C433.546 546.179 448.432 546.689 456.65 550.771Z" fill="#B20000"/>
<path d="M293.217 173.354C291.666 182.028 290.116 191.213 289.65 193.764C288.875 198.527 288.875 198.527 297.558 198.527C305.311 198.527 306.397 198.186 305.621 195.465C305.311 193.934 303.296 184.75 301.435 175.055C299.419 165.53 297.403 157.706 296.938 157.706C296.473 157.706 294.767 164.85 293.217 173.354Z" fill="#B20000"/>
<path d="M289.341 381.027C289.186 381.877 287.48 391.742 285.309 402.968C283.138 414.193 281.433 423.718 281.433 424.058C281.433 425.419 298.334 424.738 298.955 423.378C299.265 422.697 297.249 412.662 294.458 400.927C291.822 389.191 289.341 380.346 289.341 381.027Z" fill="#B20000"/>
<path d="M166.069 588.19C164.518 596.694 164.983 598.225 168.239 598.225C169.945 598.225 171.341 597.205 171.341 595.844C171.341 591.082 169.325 582.918 168.239 582.918C167.619 582.918 166.689 585.299 166.069 588.19Z" fill="#B20000"/>
</svg>
