<svg width="24" height="24" viewBox="0 0 24 24" fill="none" xmlns="http://www.w3.org/2000/svg">
<path d="M9.90675 14.3767L7.5 12L6 13.5L9.91003 17.25L18 8.25L16.4861 6.75L9.90675 14.3767Z" fill="white"/>
<path d="M12 0C5.3723 0 0 5.14845 0 11.5C0 17.8515 5.3723 23 12 23C18.6277 23 24 17.8515 24 11.5C24 5.14845 18.6277 0 12 0ZM12 21.2031C6.40795 21.2031 1.875 16.859 1.875 11.5C1.875 6.14095 6.40795 1.79688 12 1.79688C17.592 1.79688 22.125 6.14095 22.125 11.5C22.125 16.859 17.592 21.2031 12 21.2031Z" fill="white"/>
</svg>
